<svg width="205" height="59" viewBox="0 0 205 59" fill="none" xmlns="http://www.w3.org/2000/svg">
<path d="M203.096 52.1957C203.096 55.3399 200.496 57.8867 197.28 57.8867H6.95798C3.74369 57.8867 1.13464 55.3399 1.13464 52.1957V6.81162C1.13464 3.66892 3.74369 1.11316 6.95798 1.11316H197.279C200.496 1.11316 203.095 3.66892 203.095 6.81162L203.096 52.1957Z" fill="black"/>
<path d="M196.667 1.18185C200.169 1.18185 203.019 3.96038 203.019 7.375V51.625C203.019 55.0396 200.169 57.8182 196.667 57.8182H7.5641C4.06192 57.8182 1.21215 55.0396 1.21215 51.625V7.375C1.21215 3.96038 4.06192 1.18185 7.5641 1.18185H196.667ZM196.667 5.4802e-06H7.5641C3.40574 5.4802e-06 0 3.3206 0 7.375V51.625C0 55.6794 3.40574 59 7.5641 59H196.667C200.825 59 204.231 55.6794 204.231 51.625V7.375C204.231 3.3206 200.825 5.4802e-06 196.667 5.4802e-06Z" fill="#A6A6A6"/>
<path d="M45.5783 29.1814C45.5344 24.4274 49.5706 22.1146 49.7552 22.007C47.4693 18.7575 43.9263 18.3136 42.6812 18.2782C39.7055 17.9728 36.819 20.0142 35.3032 20.0142C33.7571 20.0142 31.4228 18.3077 28.907 18.3578C25.6695 18.4065 22.6409 20.234 20.9798 23.0719C17.5518 28.8583 20.1084 37.3617 23.3928 42.0389C25.0357 44.3296 26.9554 46.8873 29.4682 46.7973C31.9266 46.6985 32.8449 45.2692 35.8115 45.2692C38.7509 45.2692 39.6132 46.7973 42.1759 46.7398C44.8143 46.6985 46.4754 44.4388 48.0608 42.1274C49.9594 39.5019 50.7219 36.9163 50.7521 36.7835C50.6901 36.7629 45.6282 34.8793 45.5783 29.1814Z" fill="white"/>
<path d="M40.7372 15.2013C42.0594 13.5891 42.9641 11.3958 42.713 9.17004C40.7993 9.25264 38.406 10.4607 37.0278 12.0374C35.8085 13.4269 34.7192 15.7043 35.0006 17.846C37.1503 18.0023 39.3575 16.7884 40.7372 15.2013Z" fill="white"/>
<path d="M81.1553 46.4684H77.7196L75.8377 40.7026H69.2963L67.5036 46.4684H64.1587L70.6396 26.8391H74.6426L81.1553 46.4684ZM75.2704 38.2836L73.5685 33.158C73.3884 32.6344 73.0511 31.4013 72.5534 29.4602H72.4928C72.2947 30.295 71.9755 31.5281 71.5367 33.158L69.8651 38.2836H75.2704V38.2836Z" fill="white"/>
<path d="M97.822 39.2174C97.822 41.6246 97.1548 43.5273 95.8205 44.9242C94.6254 46.1676 93.1413 46.7886 91.3698 46.7886C89.4576 46.7886 88.084 46.1189 87.2474 44.7796H87.1869V52.2357H83.9615V36.9739C83.9615 35.4606 83.9207 33.9074 83.842 32.3144H86.6785L86.8586 34.5579H86.9191C87.9947 32.8675 89.627 32.0238 91.8176 32.0238C93.5301 32.0238 94.9597 32.6831 96.1034 34.0033C97.2501 35.3249 97.822 37.0624 97.822 39.2174ZM94.5361 39.3324C94.5361 37.9548 94.2184 36.819 93.58 35.9252C92.8826 34.993 91.9462 34.5269 90.7722 34.5269C89.9765 34.5269 89.2534 34.7865 88.6074 35.2983C87.9599 35.8146 87.5363 36.4886 87.3381 37.3235C87.2383 37.7129 87.1884 38.0315 87.1884 38.2822V40.6422C87.1884 41.6718 87.5121 42.5406 88.1596 43.25C88.8071 43.9595 89.6482 44.3135 90.683 44.3135C91.8978 44.3135 92.8433 43.8563 93.5195 42.9447C94.1973 42.0317 94.5361 40.8281 94.5361 39.3324Z" fill="white"/>
<path d="M114.519 39.2174C114.519 41.6246 113.852 43.5273 112.516 44.9242C111.322 46.1676 109.838 46.7886 108.067 46.7886C106.155 46.7886 104.781 46.1189 103.946 44.7796H103.885V52.2357H100.66V36.9739C100.66 35.4606 100.619 33.9074 100.541 32.3144H103.377L103.557 34.5579H103.618C104.692 32.8675 106.324 32.0238 108.516 32.0238C110.227 32.0238 111.657 32.6831 112.803 34.0033C113.946 35.3249 114.519 37.0624 114.519 39.2174ZM111.233 39.3324C111.233 37.9548 110.914 36.819 110.276 35.9252C109.578 34.993 108.645 34.5269 107.469 34.5269C106.672 34.5269 105.95 34.7865 105.303 35.2983C104.655 35.8146 104.233 36.4886 104.035 37.3235C103.937 37.7129 103.885 38.0315 103.885 38.2822V40.6422C103.885 41.6718 104.209 42.5406 104.854 43.25C105.501 43.958 106.342 44.3135 107.38 44.3135C108.595 44.3135 109.54 43.8563 110.217 42.9447C110.894 42.0317 111.233 40.8281 111.233 39.3324Z" fill="white"/>
<path d="M133.187 40.9637C133.187 42.6334 132.593 43.9919 131.399 45.0406C130.087 46.1867 128.261 46.759 125.915 46.759C123.749 46.759 122.012 46.3519 120.697 45.5362L121.445 42.9152C122.861 43.75 124.414 44.1689 126.107 44.1689C127.322 44.1689 128.267 43.9005 128.947 43.3665C129.623 42.8326 129.96 42.1157 129.96 41.2219C129.96 40.4254 129.682 39.7542 129.124 39.21C128.569 38.6657 127.641 38.1598 126.346 37.6922C122.821 36.4104 121.06 34.5327 121.06 32.0636C121.06 30.4499 121.678 29.1269 122.914 28.0973C124.145 27.0663 125.788 26.5515 127.842 26.5515C129.674 26.5515 131.196 26.8627 132.411 27.4837L131.605 30.0473C130.47 29.4455 129.187 29.1446 127.752 29.1446C126.617 29.1446 125.731 29.4174 125.095 29.9602C124.558 30.4455 124.289 31.037 124.289 31.7376C124.289 32.5135 124.596 33.1551 125.213 33.6595C125.75 34.1256 126.726 34.6301 128.142 35.1744C129.874 35.8543 131.146 36.6494 131.965 37.5609C132.78 38.4695 133.187 39.6067 133.187 40.9637Z" fill="white"/>
<path d="M143.851 34.6743H140.296V41.5463C140.296 43.2942 140.922 44.1674 142.178 44.1674C142.754 44.1674 143.232 44.1187 143.611 44.0214L143.7 46.4094C143.064 46.641 142.228 46.7575 141.192 46.7575C139.918 46.7575 138.922 46.3784 138.204 45.6218C137.488 44.8636 137.128 43.5922 137.128 41.8059V34.6714H135.01V32.3114H137.128V29.7198L140.296 28.7876V32.3114H143.851V34.6743Z" fill="white"/>
<path d="M159.891 39.2749C159.891 41.4505 159.253 43.2367 157.979 44.6336C156.643 46.0717 154.87 46.7885 152.66 46.7885C150.53 46.7885 148.834 46.0997 147.57 44.7221C146.305 43.3444 145.672 41.6054 145.672 39.5094C145.672 37.3161 146.323 35.5195 147.629 34.1227C148.931 32.7244 150.689 32.0253 152.899 32.0253C155.029 32.0253 156.743 32.7141 158.037 34.0932C159.274 35.431 159.891 37.1583 159.891 39.2749ZM156.545 39.3767C156.545 38.0713 156.259 36.9518 155.68 36.0181C155.004 34.8882 154.037 34.3248 152.784 34.3248C151.488 34.3248 150.503 34.8897 149.827 36.0181C149.247 36.9532 148.961 38.0905 148.961 39.4357C148.961 40.741 149.247 41.8606 149.827 42.7928C150.524 43.9226 151.498 44.4861 152.756 44.4861C153.987 44.4861 154.954 43.9108 155.651 42.7633C156.246 41.8119 156.545 40.6806 156.545 39.3767Z" fill="white"/>
<path d="M170.375 35.08C170.056 35.0225 169.716 34.993 169.359 34.993C168.224 34.993 167.347 35.4104 166.729 36.2467C166.192 36.9842 165.923 37.9164 165.923 39.0419V46.4685H162.699L162.73 36.7718C162.73 35.1405 162.689 33.6552 162.609 32.3159H165.418L165.536 35.024H165.625C165.965 34.0932 166.503 33.3439 167.238 32.782C167.956 32.276 168.732 32.0238 169.569 32.0238C169.867 32.0238 170.136 32.0445 170.375 32.0813V35.08Z" fill="white"/>
<path d="M184.8 38.7217C184.8 39.2852 184.762 39.7601 184.682 40.148H175.006C175.044 41.5463 175.511 42.6157 176.41 43.3532C177.225 44.0125 178.28 44.3429 179.575 44.3429C181.007 44.3429 182.315 44.1202 183.49 43.6733L183.995 45.8563C182.622 46.4404 181 46.731 179.129 46.731C176.877 46.731 175.11 46.0849 173.825 44.7943C172.542 43.5037 171.899 41.7705 171.899 39.5964C171.899 37.4621 172.496 35.6847 173.693 34.2672C174.946 32.7539 176.638 31.9972 178.768 31.9972C180.861 31.9972 182.445 32.7539 183.52 34.2672C184.372 35.4693 184.8 36.9561 184.8 38.7217ZM181.725 37.906C181.746 36.9738 181.535 36.1685 181.098 35.4885C180.54 34.6138 179.682 34.1772 178.528 34.1772C177.474 34.1772 176.616 34.6035 175.961 35.459C175.424 36.139 175.104 36.9547 175.006 37.9046H181.725V37.906Z" fill="white"/>
<path d="M74.2039 14.7633C74.2039 16.4994 73.6699 17.8063 72.6033 18.6839C71.6154 19.4937 70.2115 19.8993 68.3931 19.8993C67.4915 19.8993 66.7199 19.8609 66.074 19.7842V10.2985C66.9166 10.1657 67.8243 10.0979 68.8046 10.0979C70.5368 10.0979 71.8424 10.4652 72.7228 11.1997C73.7092 12.0302 74.2039 13.2175 74.2039 14.7633ZM72.5322 14.8061C72.5322 13.6807 72.2266 12.8178 71.6154 12.216C71.0043 11.6157 70.1117 11.3148 68.9362 11.3148C68.437 11.3148 68.0119 11.3472 67.6594 11.4151V18.6264C67.8546 18.6559 68.2116 18.6691 68.7305 18.6691C69.9438 18.6691 70.8802 18.3402 71.5398 17.6824C72.1994 17.0245 72.5322 16.0658 72.5322 14.8061Z" fill="white"/>
<path d="M83.0675 16.2796C83.0675 17.349 82.7544 18.2252 82.1281 18.9125C81.4715 19.619 80.6016 19.9716 79.5154 19.9716C78.4685 19.9716 77.635 19.6338 77.0132 18.9553C76.393 18.2783 76.0828 17.4242 76.0828 16.3947C76.0828 15.3179 76.402 14.4344 77.0435 13.7485C77.6849 13.0627 78.5472 12.719 79.6334 12.719C80.6803 12.719 81.5214 13.0568 82.1583 13.7338C82.7634 14.3916 83.0675 15.2412 83.0675 16.2796ZM81.4231 16.3298C81.4231 15.6882 81.2809 15.138 80.998 14.6793C80.6652 14.1247 80.1917 13.8474 79.5759 13.8474C78.939 13.8474 78.4549 14.1247 78.1221 14.6793C77.8377 15.138 77.697 15.697 77.697 16.3578C77.697 16.9994 77.8392 17.5496 78.1221 18.0083C78.4655 18.5629 78.9436 18.8402 79.5608 18.8402C80.1659 18.8402 80.641 18.5585 80.9829 17.9936C81.2763 17.526 81.4231 16.9714 81.4231 16.3298Z" fill="white"/>
<path d="M94.9522 12.8606L92.7208 19.8137H91.2685L90.3442 16.7944C90.1097 16.0407 89.9191 15.2914 89.7708 14.548H89.7421C89.6044 15.312 89.4138 16.0599 89.1687 16.7944L88.1869 19.8137H86.7179L84.6197 12.8606H86.249L87.0553 16.1661C87.2504 16.9478 87.4108 17.6927 87.5394 18.3977H87.5681C87.6861 17.8166 87.8813 17.0761 88.1566 16.1808L89.1687 12.8621H90.4607L91.4304 16.11C91.6649 16.9021 91.8555 17.6647 92.0022 18.3992H92.0461C92.1535 17.6838 92.3154 16.9213 92.5302 16.11L93.3955 12.8621H94.9522V12.8606Z" fill="white"/>
<path d="M103.171 19.8138H101.586V15.8313C101.586 14.6041 101.108 13.9905 100.149 13.9905C99.6783 13.9905 99.2986 14.1586 99.0036 14.4964C98.7116 14.8342 98.5633 15.2324 98.5633 15.6882V19.8123H96.9779V14.8475C96.9779 14.2368 96.9582 13.5745 96.9204 12.8577H98.3137L98.3878 13.9448H98.4317C98.6163 13.607 98.8916 13.3282 99.2532 13.1055C99.6828 12.8459 100.164 12.7146 100.69 12.7146C101.356 12.7146 101.91 12.924 102.35 13.3444C102.898 13.8592 103.171 14.6277 103.171 15.6484V19.8138V19.8138Z" fill="white"/>
<path d="M107.543 19.8137H105.96V9.67017H107.543V19.8137Z" fill="white"/>
<path d="M116.878 16.2796C116.878 17.349 116.564 18.2252 115.938 18.9125C115.281 19.619 114.41 19.9716 113.325 19.9716C112.277 19.9716 111.443 19.6338 110.823 18.9553C110.203 18.2783 109.893 17.4242 109.893 16.3947C109.893 15.3179 110.212 14.4344 110.853 13.7485C111.495 13.0627 112.357 12.719 113.442 12.719C114.49 12.719 115.33 13.0568 115.968 13.7338C116.573 14.3916 116.878 15.2412 116.878 16.2796ZM115.232 16.3298C115.232 15.6882 115.089 15.138 114.806 14.6793C114.475 14.1247 114 13.8474 113.386 13.8474C112.748 13.8474 112.263 14.1247 111.932 14.6793C111.648 15.138 111.507 15.697 111.507 16.3578C111.507 16.9994 111.649 17.5496 111.932 18.0083C112.276 18.5629 112.754 18.8402 113.371 18.8402C113.976 18.8402 114.449 18.5585 114.791 17.9936C115.086 17.526 115.232 16.9714 115.232 16.3298Z" fill="white"/>
<path d="M124.551 19.8137H123.127L123.009 19.0128H122.965C122.478 19.6515 121.784 19.9716 120.882 19.9716C120.209 19.9716 119.664 19.7606 119.254 19.3417C118.882 18.9612 118.696 18.4877 118.696 17.9257C118.696 17.0761 119.059 16.4286 119.79 15.9802C120.519 15.5318 121.545 15.312 122.865 15.3224V15.1926C122.865 14.2766 122.372 13.8193 121.384 13.8193C120.681 13.8193 120.06 13.9919 119.525 14.3341L119.203 13.3193C119.865 12.9196 120.684 12.719 121.649 12.719C123.513 12.719 124.448 13.6777 124.448 15.5952V18.1558C124.448 18.8506 124.482 19.4037 124.551 19.8137ZM122.905 17.4242V16.3519C121.156 16.3224 120.281 16.79 120.281 17.7532C120.281 18.116 120.381 18.3874 120.585 18.5688C120.79 18.7503 121.05 18.8402 121.36 18.8402C121.708 18.8402 122.033 18.7326 122.33 18.5187C122.628 18.3033 122.811 18.0305 122.879 17.6956C122.896 17.6204 122.905 17.529 122.905 17.4242Z" fill="white"/>
<path d="M133.559 19.8137H132.152L132.078 18.6972H132.034C131.585 19.5468 130.82 19.9716 129.744 19.9716C128.885 19.9716 128.169 19.6426 127.602 18.9848C127.035 18.3269 126.752 17.4729 126.752 16.4242C126.752 15.2988 127.059 14.3872 127.676 13.691C128.274 13.042 129.006 12.7175 129.877 12.7175C130.835 12.7175 131.505 13.0317 131.886 13.6615H131.916V9.67017H133.503V17.9405C133.503 18.6175 133.522 19.2414 133.559 19.8137ZM131.916 16.8814V15.7221C131.916 15.5215 131.901 15.3592 131.873 15.2353C131.783 14.8636 131.591 14.5509 131.299 14.2987C131.004 14.0465 130.649 13.9196 130.239 13.9196C129.647 13.9196 129.184 14.1483 128.844 14.607C128.507 15.0657 128.336 15.6513 128.336 16.3667C128.336 17.054 128.498 17.6116 128.823 18.0408C129.166 18.498 129.629 18.7267 130.209 18.7267C130.729 18.7267 131.145 18.5364 131.461 18.1544C131.767 17.8018 131.916 17.377 131.916 16.8814Z" fill="white"/>
<path d="M147.119 16.2796C147.119 17.349 146.806 18.2252 146.179 18.9125C145.523 19.619 144.654 19.9716 143.567 19.9716C142.521 19.9716 141.688 19.6338 141.065 18.9553C140.444 18.2783 140.134 17.4242 140.134 16.3947C140.134 15.3179 140.453 14.4344 141.095 13.7485C141.736 13.0627 142.599 12.719 143.686 12.719C144.732 12.719 145.574 13.0568 146.21 13.7338C146.815 14.3916 147.119 15.2412 147.119 16.2796ZM145.476 16.3298C145.476 15.6882 145.334 15.138 145.051 14.6793C144.716 14.1247 144.244 13.8474 143.627 13.8474C142.992 13.8474 142.508 14.1247 142.173 14.6793C141.889 15.138 141.748 15.697 141.748 16.3578C141.748 16.9994 141.891 17.5496 142.173 18.0083C142.517 18.5629 142.995 18.8402 143.612 18.8402C144.217 18.8402 144.694 18.5585 145.036 17.9936C145.328 17.526 145.476 16.9714 145.476 16.3298Z" fill="white"/>
<path d="M155.644 19.8138H154.06V15.8313C154.06 14.6041 153.582 13.9905 152.621 13.9905C152.15 13.9905 151.771 14.1586 151.477 14.4964C151.184 14.8342 151.037 15.2324 151.037 15.6882V19.8123H149.45V14.8475C149.45 14.2368 149.432 13.5745 149.394 12.8577H150.786L150.86 13.9448H150.904C151.09 13.607 151.365 13.3282 151.725 13.1055C152.157 12.8459 152.636 12.7146 153.164 12.7146C153.828 12.7146 154.382 12.924 154.822 13.3444C155.371 13.8592 155.644 14.6277 155.644 15.6484V19.8138V19.8138Z" fill="white"/>
<path d="M166.313 14.0184H164.568V17.3962C164.568 18.2546 164.878 18.6839 165.492 18.6839C165.776 18.6839 166.012 18.6603 166.198 18.6116L166.239 19.7842C165.926 19.8993 165.515 19.9568 165.008 19.9568C164.382 19.9568 163.894 19.7709 163.542 19.3992C163.188 19.0275 163.012 18.4021 163.012 17.5245V14.0184H161.97V12.8606H163.012V11.5862L164.566 11.1289V12.8591H166.312V14.0184H166.313Z" fill="white"/>
<path d="M174.707 19.8137H173.12V15.8607C173.12 14.6144 172.642 13.9904 171.684 13.9904C170.949 13.9904 170.447 14.3518 170.171 15.0746C170.124 15.2265 170.097 15.4123 170.097 15.6306V19.8123H168.513V9.67017H170.097V13.8606H170.127C170.627 13.0981 171.342 12.7175 172.269 12.7175C172.926 12.7175 173.469 12.927 173.9 13.3473C174.437 13.871 174.707 14.6498 174.707 15.6793V19.8137V19.8137Z" fill="white"/>
<path d="M183.364 16.0082C183.364 16.2855 183.343 16.5186 183.305 16.7088H178.551C178.572 17.3962 178.799 17.9198 179.239 18.2827C179.641 18.6072 180.16 18.7694 180.796 18.7694C181.499 18.7694 182.141 18.6603 182.718 18.4405L182.967 19.5143C182.29 19.8004 181.495 19.9435 180.573 19.9435C179.469 19.9435 178.599 19.6264 177.97 18.9921C177.337 18.3579 177.024 17.5068 177.024 16.4389C177.024 15.3902 177.316 14.517 177.905 13.8208C178.519 13.0774 179.349 12.7057 180.398 12.7057C181.424 12.7057 182.203 13.0774 182.729 13.8208C183.154 14.4108 183.364 15.1409 183.364 16.0082ZM181.852 15.6085C181.864 15.1498 181.759 14.7545 181.545 14.4211C181.269 13.9919 180.85 13.7765 180.283 13.7765C179.765 13.7765 179.343 13.986 179.021 14.4064C178.758 14.7412 178.602 15.1409 178.551 15.6085H181.852Z" fill="white"/>
</svg>
