<svg width="34" height="34" viewBox="0 0 34 34" fill="none" xmlns="http://www.w3.org/2000/svg">
<path fill-rule="evenodd" clip-rule="evenodd" d="M19.7561 18.2609C20.1628 18.6717 20.8221 18.6717 21.2288 18.2609C21.6496 17.8501 21.6496 17.1842 21.2428 16.7734L17.2173 12.6934C17.1191 12.5942 17.0069 12.5234 16.8806 12.4667C16.7544 12.4101 16.6282 12.3817 16.4879 12.3817C16.3476 12.3817 16.2074 12.4101 16.0811 12.4667C15.9549 12.5234 15.8427 12.5942 15.7445 12.6934L11.7329 16.7734C11.3262 17.1842 11.3262 17.8501 11.7329 18.2609C12.1397 18.6717 12.799 18.6717 13.2057 18.2609L15.4359 15.9942V22.8367C15.4359 23.4176 15.8988 23.8851 16.4879 23.8851C17.063 23.8851 17.5259 23.4176 17.5259 22.8367V15.9942L19.7561 18.2609ZM27.3816 12.7863C27.7113 12.7825 28.0703 12.7783 28.3965 12.7783C28.7472 12.7783 29.0417 13.0616 29.0417 13.4158V24.8058C29.0417 28.3191 26.2084 31.1666 22.7298 31.1666H11.5788C7.91795 31.1666 4.95837 28.1775 4.95837 24.4941V9.22248C4.95837 5.70915 7.77768 2.83331 11.2843 2.83331H18.7744C19.125 2.83331 19.4196 3.13081 19.4196 3.48498V8.04665C19.4196 10.6391 21.5236 12.7641 24.1044 12.7783C24.6944 12.7783 25.2182 12.7828 25.6782 12.7867C26.0386 12.7897 26.3598 12.7925 26.6432 12.7925C26.8429 12.7925 27.1017 12.7895 27.3816 12.7863ZM27.7734 10.7184C26.6204 10.7226 25.2627 10.7184 24.285 10.7085C22.7337 10.7085 21.4559 9.41788 21.4559 7.85105V4.11671C21.4559 3.50613 22.1881 3.20296 22.6075 3.64355C23.6872 4.77639 25.3398 6.51227 26.7371 7.97988C27.3038 8.57514 27.8285 9.12627 28.2559 9.57513C28.6641 10.0044 28.3639 10.717 27.7734 10.7184Z" fill="#9C9CD9"/>
</svg>
